# xmcd
# Track frame offsets:
# 150
# 18462
# 37965
#
# Disc length: 697 seconds
# Revision: 0
# Processed by: cddbd v1.5.1PL0 Copyright (c) Steve Scherf et al.
# Submitted via: VisiTrax 2.9.10.228 - For more info visit www.synapsa.com
#
DISCID=1902b703
DTITLE=Reba McIntyre - Gift of Giving
DYEAR=1999
DGENRE=Country
TTITLE0=What If
TTITLE1=Since I Fell for You
TTITLE2=Please be the One
EXTD=
EXTT0=
EXTT1=
EXTT2=
PLAYORDER=
